<?xml version="1.0" encoding="utf-8"?>
<!-- Generator: Adobe Illustrator 25.4.1, SVG Export Plug-In . SVG Version: 6.00 Build 0)  -->
<svg version="1.1"
	 id="svg2" xmlns:cc="http://creativecommons.org/ns#" xmlns:dc="http://purl.org/dc/elements/1.1/" xmlns:rdf="http://www.w3.org/1999/02/22-rdf-syntax-ns#" xmlns:svg="http://www.w3.org/2000/svg"
	 xmlns="http://www.w3.org/2000/svg" xmlns:xlink="http://www.w3.org/1999/xlink" x="0px" y="0px" viewBox="0 0 1536.7 454.7"
	 style="enable-background:new 0 0 1536.7 454.7;" xml:space="preserve">
<style type="text/css">
	.st0{display:none;}
	.st1{display:inline;fill:none;stroke:#000000;stroke-width:1.0667;}
	.st2{fill:url(#rect4216_00000005263018733483740460000010084507535909701534_);stroke:#000000;stroke-width:4.2667;}
	.st3{fill:#CCCCCC;stroke:#000000;stroke-width:4.2667;}
	.st4{fill:url(#rect4216-88_00000007403424709432627680000014412751693468396449_);stroke:#000000;stroke-width:4.2667;}
	.st5{fill:url(#rect4216-88-8_00000032627551016494196300000014889313042474611080_);stroke:#000000;stroke-width:4.2667;}
	.st6{fill:none;stroke:#000000;stroke-width:6.6476;stroke-linecap:round;}
	.st7{fill:none;stroke:#000000;stroke-width:2.1333;}
	.st8{fill:none;stroke:#000000;stroke-width:6.4;}
	.st9{fill:#C8C8C8;}
</style>
<g id="layer5" transform="translate(402.73252,-108.64428)" class="st0">
	
		<image style="display:inline;overflow:visible;enable-background:new    ;" width="1861" height="507" id="image4211" xlink:href="DEB3659A2C773591.png"  transform="matrix(1.0667 0 0 1.0667 -625.3153 33.0998)">
	</image>
</g>
<g id="layer6" transform="translate(402.73252,-108.64428)" class="st0">
	<path id="path4214" class="st1" d="M-478.8,291.6h1543v8.6"/>
</g>
<g id="layer2" transform="translate(293.36667,-109.7)">
	
		<linearGradient id="rect4216_00000116946567612909581230000017023088355742699431_" gradientUnits="userSpaceOnUse" x1="405.0859" y1="381.6487" x2="970.7713" y2="381.6487" gradientTransform="matrix(1.0667 0 0 -1.0667 -287.5361 602.7689)">
		<stop  offset="0" style="stop-color:#FFD801"/>
		<stop  offset="0.5" style="stop-color:#FF7901"/>
		<stop  offset="1" style="stop-color:#FFD801"/>
	</linearGradient>
	
		<path id="rect4216" style="fill:url(#rect4216_00000116946567612909581230000017023088355742699431_);stroke:#000000;stroke-width:4.2667;" d="
		M144.6,186H748v19.4H144.6V186z"/>
	<path id="rect4216-8" class="st3" d="M295.1,171.8h301.7v13.8H295.1V171.8z"/>
	
		<linearGradient id="rect4216-88_00000075851993622480323110000004244277476165887152_" gradientUnits="userSpaceOnUse" x1="405.0859" y1="354.5045" x2="970.7713" y2="354.5045" gradientTransform="matrix(1.0667 0 0 -1.0667 -659.5686 760.5525)">
		<stop  offset="0" style="stop-color:#FFD801"/>
		<stop  offset="0.505" style="stop-color:#FF7901"/>
		<stop  offset="1" style="stop-color:#FFD801"/>
	</linearGradient>
	
		<path id="rect4216-88" style="fill:url(#rect4216-88_00000075851993622480323110000004244277476165887152_);stroke:#000000;stroke-width:4.2667;" d="
		M-222.1,344.5c191.7,73.8,380,84.6,592,0l6.1,18.6c-207.4,78.8-408.1,73.5-603.4,0L-222.1,344.5z"/>
	<path id="rect4216-8-5" class="st3" d="M-70.8,373.8c100.1,17.6,195.5,21.4,295.6-1.5l3,13.8c-100.1,22.2-201.6,20.6-301.7,2.3
		L-70.8,373.8z"/>
	
		<linearGradient id="rect4216-88-8_00000157277812004869162980000004290713259611335843_" gradientUnits="userSpaceOnUse" x1="405.0859" y1="755.7545" x2="970.7714" y2="755.7545" gradientTransform="matrix(1.0667 0 0 1.0667 89.3547 -418.537)">
		<stop  offset="0" style="stop-color:#FFD801"/>
		<stop  offset="0.505" style="stop-color:#FF7901"/>
		<stop  offset="1" style="stop-color:#FFD801"/>
	</linearGradient>
	
		<path id="rect4216-88-8" style="fill:url(#rect4216-88-8_00000157277812004869162980000004290713259611335843_);stroke:#000000;stroke-width:4.2667;" d="
		M526.8,425.5c191.7-73.8,380-84.6,592,0l6.1-18.6c-207.4-78.8-408.1-73.5-603.4,0L526.8,425.5z"/>
	<path id="rect4216-8-5-4" class="st3" d="M653.8,367.1c104.6-20.6,214.7-26.1,334.6-0.8l3-13.8c-122.1-26-229.9-24.4-340.7,0.1
		L653.8,367.1z"/>
	<g id="g4398" transform="translate(-83.2)">
		<path id="path4394" class="st6" d="M812.8,292.9l-79,0.2"/>
		<path id="path4396" class="st6" d="M758.7,279.6l-25.9,13l25.9,13.3"/>
	</g>
	<path id="path4394-4" class="st6" d="M916.5,292.5l79,0.2"/>
	<path id="path4396-5" class="st6" d="M970.6,279.3l25.9,13l-25.9,13.3"/>
	<path id="path4426" class="st7" d="M986.4,350.3c16.7-45.3,67.9-100.2,148.2-74.9"/>
	<path id="path4428" class="st8" d="M1032.4,442.8l0.5,30.2"/>
	<path id="path4394-7" class="st6" d="M729.6,292.9l-79,0.2"/>
	<path id="path4396-1" class="st6" d="M675.5,279.6l-25.9,13l25.9,13.3"/>
	<path id="path4428-6" class="st8" d="M1047.8,457.6l-30.2,0.5"/>
	<path id="path4428-6-9" class="st8" d="M1173.3,277.8l-22.9,0.5"/>
	<path id="path4426-6" class="st7" d="M1012.1,449.3c-52.8,1.6-130.1-17.6-138.6-79.5"/>
	<path id="path4394-4-2" class="st6" d="M-23.5,293l79,0.2"/>
	<path id="path4396-5-2" class="st6" d="M30.6,279.7l25.9,13l-25.9,13.3"/>
	<path id="path4426-4" class="st7" d="M194.2,379.7c16.7-45.3,67.9-100.2,148.2-74.9"/>
	<path id="path4428-9" class="st8" d="M373,292.4l0.5,30.2"/>
	<path id="path4428-6-1" class="st8" d="M388.4,307.3l-30.2,0.5"/>
	<path id="path4428-6-9-8" class="st8" d="M333.8,494l-22.9,0.5"/>
	<path id="path4426-6-2" class="st7" d="M292.5,495.8c-52.8,1.6-130.1-17.6-138.6-79.5"/>
	<path id="path4394-4-2-0" class="st6" d="M166.9,294.6l-79,0.2"/>
	<path id="path4396-5-2-1" class="st6" d="M112.8,281.4l-25.9,13l25.9,13.3"/>
</g>
<g>
	<path class="st9" d="M1535.7,1v452.7H1V1H1535.7 M1536.7,0H0v454.7h1536.7V0L1536.7,0z"/>
</g>
</svg>
